<?xml version="1.0" standalone="no"?>
<!DOCTYPE svg PUBLIC "-//W3C//DTD SVG 20010904//EN"
 "http://www.w3.org/TR/2001/REC-SVG-20010904/DTD/svg10.dtd">
<svg version="1.0" xmlns="http://www.w3.org/2000/svg"
 width="462.000000pt" height="120.000000pt" viewBox="0 0 462.000000 120.000000"
 preserveAspectRatio="xMidYMid meet">

<g transform="translate(0.000000,120.000000) scale(0.100000,-0.100000)"
fill="#0cabc2" stroke="none">
<path d="M730 1120 c-19 -19 -20 -33 -20 -515 0 -482 1 -496 20 -515 20 -20
33 -20 1579 -20 l1560 0 20 26 c21 26 21 36 21 509 0 473 0 483 -21 509 l-20
26 -1560 0 c-1546 0 -1559 0 -1579 -20z m3120 -328 c0 -313 -1 -322 -45 -322
-40 0 -45 18 -45 151 0 100 -3 129 -15 139 -8 7 -22 10 -30 6 -12 -4 -15 -24
-15 -93 0 -96 -14 -136 -47 -141 -43 -6 -53 21 -53 138 0 94 -2 111 -17 118
-37 19 -43 5 -43 -107 0 -112 -12 -151 -48 -151 -42 1 -47 14 -52 152 l-5 133
-25 0 -25 0 -5 -163 c-4 -130 -8 -165 -20 -172 -22 -14 -56 -12 -69 3 -7 9
-12 97 -13 253 l-3 239 -25 0 -25 0 -5 -283 c-4 -237 -7 -284 -20 -292 -25
-16 -59 -11 -70 9 -6 12 -10 110 -10 249 0 192 -2 232 -15 242 -12 10 -18 10
-30 0 -12 -10 -15 -46 -15 -206 0 -181 -1 -195 -20 -214 -12 -12 -20 -33 -20
-55 0 -24 -5 -35 -15 -35 -30 0 -35 39 -35 268 0 192 -2 232 -15 242 -12 10
-18 10 -30 0 -12 -10 -15 -46 -15 -204 0 -150 -3 -196 -14 -212 -8 -10 -18
-15 -23 -11 -4 5 -10 120 -13 255 l-5 247 -25 0 -25 0 -5 -283 c-4 -237 -7
-284 -20 -292 -25 -16 -59 -11 -70 9 -6 12 -10 110 -10 249 0 192 -2 232 -15
242 -12 10 -18 10 -30 0 -12 -10 -15 -46 -15 -204 0 -150 -3 -196 -14 -212 -8
-10 -18 -15 -23 -11 -4 5 -10 120 -13 255 l-5 247 -25 0 -25 0 -5 -283 c-4
-237 -7 -284 -20 -292 -25 -16 -59 -11 -70 9 -6 12 -10 110 -10 249 0 192 -2
232 -15 242 -12 10 -18 10 -30 0 -12 -10 -15 -46 -15 -202 0 -180 -6 -228 -30
-228 -6 0 -10 98 -10 256 0 238 -1 255 -17 252 -17 -3 -18 -27 -23 -286 -4
-237 -7 -284 -20 -292 -25 -16 -59 -11 -70 9 -6 12 -10 110 -10 249 0 192 -2
232 -15 242 -12 10 -18 10 -30 0 -12 -10 -15 -46 -15 -202 0 -180 -6 -228 -30
-228 -6 0 -10 98 -10 256 l0 255 -22 -3 -23 -3 -5 -283 c-4 -237 -7 -284 -20
-292 -25 -16 -59 -11 -70 9 -6 12 -10 110 -10 249 0 192 -2 232 -15 242 -12
10 -18 10 -30 0 -12 -10 -15 -46 -15 -204 0 -152 -3 -196 -14 -212 -12 -15
-18 -17 -33 -8 -16 10 -18 34 -23 255 l-5 244 -25 0 -25 0 -5 -283 c-4 -237
-7 -284 -20 -292 -25 -16 -59 -11 -70 9 -6 12 -10 110 -10 249 0 192 -2 232
-15 242 -12 10 -18 10 -30 0 -12 -10 -15 -46 -15 -202 0 -179 -6 -228 -30
-228 -5 0 -11 64 -12 148 -3 139 -4 147 -23 147 -18 0 -20 -8 -25 -101 -5
-105 -16 -134 -51 -134 -40 0 -49 26 -49 140 0 94 -2 111 -17 118 -37 19 -43
5 -43 -107 0 -112 -12 -151 -48 -151 -42 1 -47 14 -52 152 l-5 133 -25 0 -25
0 -5 -163 c-4 -130 -8 -165 -20 -172 -22 -14 -56 -12 -69 3 -7 9 -12 97 -13
253 l-3 239 -25 0 -25 0 -5 -283 c-4 -237 -7 -284 -20 -292 -25 -16 -59 -11
-70 9 -6 12 -10 110 -10 249 0 192 -2 232 -15 242 -12 10 -18 10 -30 0 -12
-10 -15 -46 -15 -202 0 -111 -4 -197 -10 -209 -14 -26 -66 -26 -80 0 -11 22
-15 583 -3 594 3 4 699 7 1545 7 l1538 0 0 -298z m-1610 -543 c0 -59 12 -57
30 6 7 25 16 45 21 45 5 0 -2 -30 -16 -66 -14 -37 -25 -68 -25 -70 0 -2 -7 -4
-15 -4 -10 0 -15 10 -15 34 0 49 -11 96 -21 90 -5 -3 -9 -14 -9 -25 0 -10 -4
-19 -10 -19 -15 0 -12 27 6 44 8 9 24 16 35 16 16 0 19 -7 19 -51z m237 -21
c-15 -83 -16 -86 -31 -67 -10 15 -15 15 -36 4 -15 -8 -31 -10 -40 -5 -9 5 -22
5 -31 -1 -19 -12 -25 -11 -42 5 -9 9 -12 26 -9 41 5 28 45 61 62 50 18 -11 11
-34 -15 -51 -14 -9 -22 -20 -19 -25 9 -14 22 -11 45 14 l22 22 -6 -22 c-3 -13
-1 -23 4 -23 16 0 22 29 10 44 -14 16 -4 46 15 46 9 0 14 -12 14 -35 0 -46 17
-45 26 3 8 45 12 52 28 52 10 0 10 -12 3 -52z"/>
<path d="M2327 233 c-4 -3 -7 -11 -7 -17 0 -6 5 -5 12 2 6 6 9 14 7 17 -3 3
-9 2 -12 -2z"/>
</g>
</svg>
