<?xml version="1.0" encoding="UTF-8"?>
<!-- Generator: Adobe Illustrator 16.0.0, SVG Export Plug-In . SVG Version: 6.00 Build 0)  -->
<!DOCTYPE svg PUBLIC "-//W3C//DTD SVG 1.1//EN" "http://www.w3.org/Graphics/SVG/1.1/DTD/svg11.dtd">
<svg version="1.1" id="Ebene_1" xmlns="http://www.w3.org/2000/svg" xmlns:xlink="http://www.w3.org/1999/xlink" x="0px" y="0px" width="790.67px" height="164.35px" viewBox="84.665 197.825 790.67 164.35" enable-background="new 84.665 197.825 790.67 164.35" xml:space="preserve">
<g>
	<path fill="#1A1A1A" d="M104.586,261.971c-3.387,0-6.375-0.199-8.964-0.797c-2.59-0.398-4.582-1.394-6.176-2.789   s-2.789-3.387-3.585-5.977s-1.195-5.777-1.195-9.761v-18.726c0-3.984,0.398-7.171,1.195-9.761s1.992-4.582,3.585-5.977   s3.785-2.39,6.176-2.789c2.59-0.398,5.578-0.797,8.964-0.797h54.584v14.542h-51.795c-3.188,0-5.18,0.598-6.176,1.594   s-1.394,2.988-1.394,5.578v13.746c0,2.391,0.398,4.184,0.996,5.379c0.797,1.195,2.391,1.792,5.18,1.792h37.452   c3.387,0,6.375,0.199,8.965,0.797c2.589,0.398,4.582,1.395,6.175,2.789s2.789,3.387,3.586,5.977s1.195,5.777,1.195,9.761v18.726   c0,3.984-0.398,7.172-1.195,9.762c-0.797,2.589-1.992,4.581-3.586,5.976s-3.785,2.391-6.175,2.789   c-2.59,0.398-5.578,0.797-8.965,0.797H88.649v-14.542h52.193c3.188,0,5.18-0.598,6.176-1.594s1.395-2.988,1.395-5.578v-13.546   c0-2.59-0.398-4.582-1.395-5.578s-2.988-1.594-6.176-1.594h-36.256V261.971z"/>
	<path fill="#1A1A1A" d="M197.219,282.889c0,1.793,0.199,2.988,0.398,3.984c0.398,0.996,0.996,1.793,1.793,2.191   c0.996,0.398,2.191,0.797,3.785,0.996s3.785,0.199,6.375,0.199h52.193v14.542h-60.162c-3.387,0-6.375-0.199-8.964-0.797   c-2.59-0.398-4.582-1.395-6.176-2.789s-2.789-3.387-3.586-5.976c-0.797-2.59-1.195-5.777-1.195-9.762v-61.557   c0-3.984,0.398-7.171,1.195-9.761s1.992-4.582,3.586-5.977c1.594-1.394,3.785-2.39,6.176-2.789   c2.589-0.398,5.578-0.797,8.964-0.797h44.026c3.386,0,6.375,0.199,8.964,0.797c2.59,0.398,4.582,1.395,6.175,2.789   c1.594,1.395,2.789,3.387,3.586,5.977s1.195,5.777,1.195,9.761v22.71c0,3.984-0.398,7.172-1.195,9.762s-1.992,4.582-3.586,5.976   s-3.785,2.391-6.175,2.789c-2.59,0.398-5.578,0.797-8.964,0.797h-48.409V282.889z M250.409,226.512c0-2.59-0.398-4.582-1.395-5.578   s-2.988-1.594-6.175-1.594H204.59c-1.992,0-3.586,0.199-4.582,0.797c-0.996,0.398-1.793,1.195-2.191,2.191   s-0.797,2.191-0.797,3.387c0,1.395,0,2.789,0,4.582v21.315h45.819c3.188,0,5.179-0.598,6.175-1.594s1.395-2.988,1.395-5.578   V226.512L250.409,226.512z"/>
	<path fill="#1A1A1A" d="M350.812,226.512c0-2.59-0.398-4.582-1.395-5.578s-2.988-1.594-6.176-1.594h-59.166v-14.542h62.154   c3.387,0,6.375,0.199,8.964,0.797c2.59,0.398,4.582,1.395,6.176,2.789c1.594,1.395,2.789,3.387,3.586,5.977   s1.195,5.777,1.195,9.761v61.357c0,3.984-0.398,7.172-1.195,9.762c-0.797,2.589-1.992,4.581-3.586,5.976s-3.785,2.391-6.176,2.789   c-2.589,0.398-5.578,0.797-8.964,0.797h-44.026c-3.386,0-6.375-0.199-8.964-0.797c-2.59-0.398-4.582-1.395-6.176-2.789   c-1.593-1.395-2.789-3.387-3.585-5.976c-0.797-2.59-1.195-5.777-1.195-9.762v-23.906c0-3.984,0.398-7.171,1.195-9.761   s1.992-4.582,3.585-5.976c1.594-1.395,3.785-2.391,6.176-2.789c2.59-0.398,5.578-0.797,8.964-0.797h48.608V226.512L350.812,226.512   z M297.622,282.889c0,2.59,0.398,4.582,1.395,5.578c0.996,0.996,2.988,1.594,6.175,1.594h38.249c3.188,0,5.18-0.598,6.176-1.594   s1.395-2.988,1.395-5.578v-26.296h-45.819c-3.188,0-5.18,0.598-6.175,1.594c-0.996,0.996-1.395,2.988-1.395,5.578V282.889z"/>
	<path fill="#1A1A1A" d="M404.399,261.971c-3.387,0-6.375-0.199-8.965-0.797c-2.59-0.398-4.582-1.394-6.175-2.789   s-2.789-3.387-3.586-5.977s-1.195-5.777-1.195-9.761v-18.726c0-3.984,0.398-7.171,1.195-9.761s1.992-4.582,3.586-5.977   s3.785-2.39,6.175-2.789c2.59-0.398,5.578-0.797,8.965-0.797h54.584v14.542h-51.795c-3.187,0-5.179,0.598-6.175,1.594   s-1.395,2.988-1.395,5.578v13.746c0,2.391,0.398,4.184,0.996,5.379c0.797,1.195,2.391,1.792,5.18,1.792h37.451   c3.387,0,6.375,0.199,8.965,0.797c2.59,0.398,4.582,1.395,6.176,2.789s2.789,3.387,3.586,5.977s1.195,5.777,1.195,9.761v18.726   c0,3.984-0.398,7.172-1.195,9.762c-0.797,2.589-1.992,4.581-3.586,5.976s-3.785,2.391-6.176,2.789   c-2.59,0.398-5.578,0.797-8.965,0.797h-54.982v-14.542h52.193c3.188,0,5.18-0.598,6.176-1.594s1.395-2.988,1.395-5.578v-13.546   c0-2.59-0.398-4.582-1.395-5.578s-2.988-1.594-6.176-1.594h-36.057V261.971z"/>
	<path fill="#1A1A1A" d="M565.761,285.279c0,3.984-0.398,7.172-1.195,9.762c-0.797,2.589-1.992,4.581-3.586,5.976   s-3.785,2.391-6.176,2.789c-2.59,0.398-5.578,0.797-8.964,0.797h-44.026c-3.387,0-6.375-0.199-8.964-0.797   c-2.59-0.398-4.582-1.395-6.176-2.789s-2.789-3.387-3.586-5.976c-0.797-2.59-1.195-5.777-1.195-9.762v-61.357   c0-3.984,0.398-7.171,1.195-9.761s1.992-4.582,3.586-5.977c1.594-1.394,3.785-2.39,6.176-2.789   c2.589-0.398,5.577-0.797,8.964-0.797h44.026c3.386,0,6.374,0.199,8.964,0.797c2.59,0.398,4.582,1.395,6.176,2.789   c1.594,1.395,2.789,3.387,3.586,5.977s1.195,5.777,1.195,9.761V285.279z M543.051,290.061c3.188,0,5.179-0.598,6.175-1.594   s1.395-2.988,1.395-5.578v-56.377c0-2.59-0.398-4.582-1.395-5.578s-2.987-1.594-6.175-1.594h-38.249   c-3.188,0-5.18,0.598-6.176,1.594s-1.395,2.988-1.395,5.578v56.377c0,2.59,0.398,4.582,1.395,5.578s2.988,1.594,6.176,1.594   H543.051z"/>
	<path fill="#1A1A1A" d="M669.948,304.603h-15.34v-78.091c0-2.59-0.398-4.582-1.395-5.578s-2.987-1.594-6.175-1.594H608.79   c-3.188,0-5.18,0.598-6.176,1.594s-1.395,2.988-1.395,5.578v78.091h-15.339v-80.681c0-3.984,0.398-7.171,1.195-9.761   s1.992-4.582,3.586-5.977c1.594-1.394,3.785-2.39,6.175-2.789c2.59-0.398,5.578-0.797,8.965-0.797h44.025   c3.387,0,6.375,0.199,8.965,0.797c2.59,0.398,4.582,1.395,6.176,2.789c1.594,1.395,2.789,3.387,3.586,5.977   s1.195,5.777,1.195,9.761v80.681H669.948z"/>
	<path fill="#1A1A1A" d="M756.605,226.512c0-2.59-0.398-4.582-1.395-5.578s-2.988-1.594-6.176-1.594h-59.166v-14.542h62.154   c3.387,0,6.375,0.199,8.964,0.797c2.59,0.398,4.582,1.395,6.176,2.789c1.594,1.395,2.789,3.387,3.586,5.977   s1.195,5.777,1.195,9.761v61.357c0,3.984-0.398,7.172-1.195,9.762c-0.797,2.589-1.992,4.581-3.586,5.976s-3.785,2.391-6.176,2.789   c-2.589,0.398-5.577,0.797-8.964,0.797h-44.026c-3.386,0-6.374-0.199-8.964-0.797c-2.59-0.398-4.582-1.395-6.176-2.789   s-2.789-3.387-3.586-5.976c-0.797-2.59-1.195-5.777-1.195-9.762v-23.906c0-3.984,0.398-7.171,1.195-9.761s1.992-4.582,3.586-5.976   c1.594-1.395,3.785-2.391,6.176-2.789c2.59-0.398,5.578-0.797,8.964-0.797h48.608V226.512L756.605,226.512z M703.416,282.889   c0,2.59,0.398,4.582,1.395,5.578s2.988,1.594,6.175,1.594h38.249c3.188,0,5.18-0.598,6.176-1.594s1.395-2.988,1.395-5.578v-26.296   h-45.819c-3.187,0-5.179,0.598-6.175,1.594s-1.395,2.988-1.395,5.578V282.889L703.416,282.889z"/>
	<polygon fill="#1A1A1A" points="848.242,224.918 840.273,211.372 821.946,241.453 800.232,204.798 783.897,204.798    813.779,254.999 784.097,304.603 800.432,304.603 821.946,268.944 843.461,304.603 859.797,304.603 830.114,254.999  "/>
	<polygon fill="#12ACC3" points="875.335,197.825 859.797,224.719 844.258,197.825  "/>
	<g>
		<path fill="#12ACC3" d="M91.836,351.218v0.996c0,2.59,1.195,2.789,5.18,2.789c3.984,0,4.382-0.797,4.382-3.387    c0-3.188-1.793-2.789-4.98-2.988c-4.781-0.398-8.566-0.199-8.566-6.573c0-6.176,3.785-6.375,9.164-6.375    c4.582,0,8.367,0.199,8.367,5.977v0.797H101v-0.797c0-2.391-0.996-2.59-3.984-2.59c-4.184,0-4.98,0.398-4.98,2.789    c0,2.789,0.598,2.789,4.98,3.188c6.972,0.398,8.765,0.797,8.765,6.573c0,6.375-2.988,6.773-8.765,6.773    c-4.98,0-9.363,0.199-9.363-6.176v-0.996H91.836L91.836,351.218z"/>
		<path fill="#12ACC3" d="M124.109,345.242h10.558v3.585h-10.558v5.977h11.156v3.586h-15.539v-22.312h15.339v3.586H123.91v5.578    H124.109z"/>
		<path fill="#12ACC3" d="M153.791,354.206l-1.394,4.184h-4.383l7.371-22.312h6.375l7.57,22.312h-4.382l-1.395-4.184H153.791z     M158.771,339.266L158.771,339.266l-3.984,11.554h7.77L158.771,339.266z"/>
		<path fill="#12ACC3" d="M186.063,351.218v0.996c0,2.59,1.195,2.789,5.18,2.789c3.984,0,4.382-0.797,4.382-3.387    c0-3.188-1.793-2.789-4.98-2.988c-4.781-0.398-8.566-0.199-8.566-6.573c0-6.176,3.785-6.375,9.164-6.375    c4.582,0,8.367,0.199,8.367,5.977v0.797h-4.383v-0.797c0-2.391-0.996-2.59-3.984-2.59c-4.184,0-4.98,0.398-4.98,2.789    c0,2.789,0.598,2.789,4.98,3.188c6.972,0.398,8.765,0.797,8.765,6.573c0,6.375-2.988,6.773-8.765,6.773    c-4.98,0-9.363,0.199-9.363-6.176v-0.996H186.063L186.063,351.218z"/>
		<path fill="#12ACC3" d="M232.679,344.047v5.976c0,7.172-2.789,8.566-9.562,8.566c-6.972,0-9.562-1.195-9.562-8.566v-5.976    c0-6.973,2.391-8.168,9.562-8.168C229.492,335.879,232.679,336.875,232.679,344.047z M217.938,344.047v5.976    c0,4.383,0.797,4.781,5.179,4.781c3.984,0,5.18-0.598,5.18-4.781v-5.976c0-4.184-1.395-4.582-5.18-4.582    C218.336,339.465,217.938,340.461,217.938,344.047z"/>
		<path fill="#12ACC3" d="M263.756,336.078h4.383v22.312h-7.172l-9.562-18.726h-0.199l0.398,18.726h-4.383v-22.312h7.172    l9.562,18.726h0.199L263.756,336.078z"/>
		<path fill="#12ACC3" d="M286.864,351.218v0.996c0,2.59,1.195,2.789,5.18,2.789s4.383-0.797,4.383-3.387    c0-3.188-1.793-2.789-4.98-2.988c-4.781-0.398-8.566-0.199-8.566-6.573c0-6.176,3.785-6.375,9.164-6.375    c4.582,0,8.367,0.199,8.367,5.977v0.797h-4.383v-0.797c0-2.391-0.996-2.59-3.984-2.59c-4.184,0-4.98,0.398-4.98,2.789    c0,2.789,0.598,2.789,4.98,3.188c6.973,0.398,8.765,0.797,8.765,6.573c0,6.375-2.988,6.773-8.765,6.773    c-4.98,0-9.363,0.199-9.363-6.176v-0.996H286.864L286.864,351.218z"/>
		<path fill="#12ACC3" d="M315.75,360.382c1.195,0,1.793-0.398,1.793-1.992h-1.594v-3.984h3.785v3.586    c0,2.59-0.199,4.184-3.387,4.184h-0.797v-1.793H315.75z"/>
		<path fill="#12ACC3" d="M358.78,336.078h9.96c5.977,0,7.969,1.395,7.969,7.77c0,6.374-2.191,7.37-7.969,7.37h-5.578v7.172h-4.383    V336.078z M368.74,347.433c2.988,0,3.586-0.598,3.586-3.784c0-3.188-0.398-3.984-3.586-3.984h-5.578v7.769H368.74z"/>
		<path fill="#12ACC3" d="M393.642,354.206l-1.394,4.184h-4.383l7.371-22.312h6.375l7.57,22.312h-4.382l-1.395-4.184H393.642z     M398.423,339.266L398.423,339.266l-3.984,11.554h7.77L398.423,339.266z"/>
		<path fill="#12ACC3" d="M429.699,358.39h-4.383v-18.726h-6.574v-3.586h17.531v3.586h-6.574V358.39z"/>
		<path fill="#12ACC3" d="M458.585,358.39h-4.383v-18.726h-6.574v-3.586h17.531v3.586h-6.574V358.39z"/>
		<path fill="#12ACC3" d="M482.689,345.242h10.559v3.585h-10.559v5.977h11.156v3.586h-15.539v-22.312h15.34v3.586H482.49v5.578    H482.689z"/>
		<path fill="#12ACC3" d="M512.97,351.019v7.371h-4.383v-22.312h11.354c4.98,0.199,6.773,1.594,6.773,6.773    c0,3.387-0.199,5.776-3.984,6.374v0.199c2.988,0.199,3.785,1.992,3.785,5.18v4.184h-4.383v-4.184c0-1.793-0.797-3.188-2.789-3.188    h-6.374V351.019z M518.547,347.433c3.188,0,3.984-0.598,3.984-3.983c0-3.188-0.598-3.785-3.585-3.785h-5.977v7.569h5.577V347.433z    "/>
		<path fill="#12ACC3" d="M558.19,336.078h4.383v22.312h-7.172l-9.562-18.726l0,0l0.398,18.726h-4.383v-22.312h7.171l9.562,18.726    h0.199L558.19,336.078z"/>
		<path fill="#12ACC3" d="M581.299,351.218v0.996c0,2.59,1.195,2.789,5.18,2.789s4.383-0.797,4.383-3.387    c0-3.188-1.793-2.789-4.98-2.988c-4.781-0.398-8.766-0.199-8.766-6.573c0-6.176,3.984-6.375,9.363-6.375    c4.582,0,8.367,0.199,8.367,5.977v0.797h-4.383v-0.797c0-2.391-0.996-2.59-3.984-2.59c-4.184,0-4.98,0.398-4.98,2.789    c0,2.789,0.598,2.789,4.98,3.188c6.973,0.398,8.766,0.797,8.766,6.573c0,6.375-2.988,6.773-8.766,6.773    c-4.98,0-9.363,0.199-9.363-6.176v-0.996H581.299L581.299,351.218z"/>
		<path fill="#12ACC3" d="M648.035,356.198c-1.395,2.391-4.383,2.391-7.371,2.391c-5.777,0-9.363-0.598-9.363-6.973    c0-3.387,0.598-5.776,4.184-6.175c-1.594-1.195-1.793-1.992-1.793-3.984c0-4.98,2.59-5.777,7.172-5.777    c5.578,0,6.973,0.996,6.973,6.973h-3.586c0-2.988-0.199-3.586-3.188-3.586c-1.992,0-3.188,0-3.188,2.191    c0,1.395,0.398,1.793,1.395,2.59l7.172,6.175v-2.988h3.586v1.594c0,1.395,0,2.988-0.398,4.184l3.188,2.789l-1.992,2.391    L648.035,356.198z M638.074,347.632c-2.391,0.398-2.391,1.594-2.391,4.184c0,3.586,1.395,3.387,5.18,3.387    c2.191,0,3.586,0,4.582-1.395L638.074,347.632z"/>
		<path fill="#12ACC3" d="M701.822,343.449v-1.195c0-2.59-0.996-2.789-4.781-2.789c-4.383,0-5.18,0.797-5.18,5.18v4.979    c0,4.582,0.598,5.379,5.18,5.379c3.387,0,4.98-0.199,4.98-3.387v-1.195h4.383v1.395c0,6.773-3.785,6.574-9.363,6.773    c-7.969,0.398-9.363-2.391-9.363-8.766v-5.179c0-7.172,2.789-8.766,9.363-8.766c5.578,0,8.766,0,9.164,6.375v1.195H701.822    L701.822,343.449z"/>
		<path fill="#12ACC3" d="M730.907,349.823v8.566h-4.383v-8.566l-8.168-13.745h4.98l5.379,9.562l0,0l5.378-9.562h4.98    L730.907,349.823z"/>
		<path fill="#12ACC3" d="M765.769,343.449v-1.195c0-2.59-0.996-2.789-4.781-2.789c-4.382,0-5.179,0.797-5.179,5.18v4.979    c0,4.582,0.598,5.379,5.179,5.379c3.387,0,4.98-0.199,4.98-3.387v-1.195h4.383v1.395c0,6.773-3.785,6.574-9.363,6.773    c-7.968,0.398-9.362-2.391-9.362-8.766v-5.179c0-7.172,2.789-8.766,9.362-8.766c5.578,0,8.766,0,9.164,6.375v1.195H765.769    L765.769,343.449z"/>
		<path fill="#12ACC3" d="M789.076,354.804h10.559v3.586h-14.741v-22.312h4.382v18.726H789.076z"/>
		<path fill="#12ACC3" d="M817.165,345.242h10.559v3.585h-10.559v5.977h11.156v3.586h-15.538v-22.312h15.339v3.586h-11.156v5.578    H817.165z"/>
		<path fill="#12ACC3" d="M846.449,351.218v0.996c0,2.59,1.195,2.789,5.18,2.789s4.383-0.797,4.383-3.387    c0-3.188-1.793-2.789-4.98-2.988c-4.781-0.398-8.766-0.199-8.766-6.573c0-6.176,3.984-6.375,9.363-6.375    c4.582,0,8.367,0.199,8.367,5.977v0.797h-4.383v-0.797c0-2.391-0.996-2.59-3.984-2.59c-4.184,0-4.98,0.398-4.98,2.789    c0,2.789,0.598,2.789,4.98,3.188c6.973,0.398,8.766,0.797,8.766,6.573c0,6.375-2.988,6.773-8.766,6.773    c-4.98,0-9.363,0.199-9.363-6.176v-0.996H846.449L846.449,351.218z"/>
	</g>
</g>
</svg>